<svg fill="none" xmlns="http://www.w3.org/2000/svg" viewBox="0 0 180 58"><g clip-path="url(#a)"><path d="M77.03 17.069h2.365a.473.473 0 0 0 .426-.367l1.017-4.164h5.122l1.018 4.164a.474.474 0 0 0 .426.367h2.365a.38.38 0 0 0 .402-.367 1.015 1.015 0 0 1 0-.118l-3.69-13.71a3.253 3.253 0 0 0-6.187 0L76.651 16.56c.002.04.002.08 0 .119a.379.379 0 0 0 .402.366l-.023.024Zm5.997-13.52c.07-.26.142-.355.355-.355s.295.094.355.355l1.608 6.494H81.43l1.597-6.494ZM92.62 16.679c1.464.36 2.964.551 4.471.567 3.549 0 5.312-2.081 5.312-5.5v-1.68c0-3.406-1.739-5.488-5.312-5.488-.716.008-1.43.06-2.14.153V.851a.45.45 0 0 0-.438-.437h-2.047a.45.45 0 0 0-.45.438v15.235c0 .32.096.462.604.592Zm2.366-9.582a17.53 17.53 0 0 1 2.14-.154c1.905 0 2.367 1.325 2.367 3.123v1.68c0 1.798-.474 3.135-2.366 3.135a13.772 13.772 0 0 1-2.141-.154v-7.63ZM108.696 17.223a5.806 5.806 0 0 0 3.548-1.1v.508a.438.438 0 0 0 .438.438h2.046a.45.45 0 0 0 .45-.438V5.193a.461.461 0 0 0-.45-.462h-2.093a.454.454 0 0 0-.315.14.44.44 0 0 0-.093.149.427.427 0 0 0-.03.173v8.741a6.328 6.328 0 0 1-2.52.876 1.94 1.94 0 0 1-1.372-.39c-.426-.367-.52-1.006-.52-2.094V5.228a.45.45 0 0 0-.023-.182.449.449 0 0 0-.237-.27.463.463 0 0 0-.178-.045h-2.082a.46.46 0 0 0-.449.462v7.097a5.427 5.427 0 0 0 1.112 3.975 3.806 3.806 0 0 0 2.732.922M124.381 16.986c1.452.169 2.914.256 4.376.26 4.46 0 6.991-2.365 6.991-6.695V7.334c0-4.33-2.531-6.695-6.991-6.695a39.02 39.02 0 0 0-4.376.26.614.614 0 0 0-.58.686V16.3a.617.617 0 0 0 .58.686ZM126.9 3.265c.461 0 1.041-.071 1.857-.071 2.236 0 3.916.863 3.916 4.14v3.217c0 3.277-1.68 4.129-3.916 4.129-.816 0-1.396 0-1.857-.06V3.265ZM138.859 17.069h2.047a.472.472 0 0 0 .449-.461V7.77a5.796 5.796 0 0 1 2.579-.745c1.49 0 1.821.485 1.821 2.366v7.168a.472.472 0 0 0 .45.462h2.046a.46.46 0 0 0 .438-.462V9.463c0-2.697-.911-4.838-3.975-4.838a6.08 6.08 0 0 0-3.359.804V.852a.45.45 0 0 0-.449-.438h-2.047a.437.437 0 0 0-.437.438V16.56a.459.459 0 0 0 .437.462M154.946 17.246a6.106 6.106 0 0 0 3.135-.97v.355a.447.447 0 0 0 .438.438h1.892a.449.449 0 0 0 .45-.438V8.753c0-2.803-1.739-4.175-4.897-4.175-1.246 0-2.49.115-3.715.343-.283.07-.425.224-.425.461V6.79c0 .307.177.366.402.366h.118c.733-.082 2.2-.177 3.62-.177 1.419 0 1.963.355 1.963 1.774v.97h-1.407c-3.868 0-5.43 1.29-5.43 3.774v.094c0 2.958 2.011 3.655 3.856 3.655Zm-.899-3.75c0-1.182.45-1.857 2.473-1.857h1.407v2.697a5.04 5.04 0 0 1-2.271.616c-1.112 0-1.609-.284-1.609-1.36v-.095ZM164.41 16.679c1.463.36 2.964.55 4.471.567 3.549 0 5.311-2.081 5.311-5.5v-1.68c0-3.406-1.727-5.488-5.311-5.488-.704.009-1.408.06-2.106.153V.851a.448.448 0 0 0-.449-.437h-2.047a.448.448 0 0 0-.449.438v15.235c0 .32.095.462.603.592h-.023Zm2.365-9.582a17.181 17.181 0 0 1 2.13-.154c1.916 0 2.365 1.325 2.365 3.123v1.68c0 1.798-.461 3.135-2.365 3.135a13.512 13.512 0 0 1-2.13-.154v-7.63ZM177.078 3.087h2.153a.434.434 0 0 0 .415-.267.434.434 0 0 0 .035-.17V.72a.45.45 0 0 0-.45-.437h-2.153a.471.471 0 0 0-.473.437V2.65a.459.459 0 0 0 .473.437ZM179.172 4.731h-2.046a.442.442 0 0 0-.318.124.438.438 0 0 0-.132.314V16.56a.476.476 0 0 0 .45.462h2.046a.46.46 0 0 0 .438-.462V5.17a.437.437 0 0 0-.438-.438ZM79.242 28.661l1.182.722c2.035 1.254 2.567 1.62 2.567 2.697 0 1.076-.355 2.366-3.04 2.366-.893-.01-1.786-.07-2.673-.178h-.047a.59.59 0 0 0-.65.627v.071c0 .568.52.65.756.686.885.129 1.78.188 2.673.178 3.727 0 4.507-2.011 4.507-3.703 0-1.691-1.254-2.744-3.324-3.963l-1.183-.698c-1.68-1.005-2.282-1.55-2.282-2.578 0-.734.319-1.692 3.075-1.692.757 0 2.283.13 2.366.142h.213a.615.615 0 0 0 .698-.615v-.083c0-.603-.568-.65-.77-.674a25.733 25.733 0 0 0-2.543-.166c-2.933 0-4.542 1.089-4.542 3.076s1.183 2.756 2.981 3.82M93.294 31.228v-1.183c0-2.993-1.36-4.637-3.856-4.637a17.258 17.258 0 0 0-3.099.355.591.591 0 0 0-.52.639V38.49a.638.638 0 0 0 .626.65h.178a.639.639 0 0 0 .627-.65v-2.898c.723.12 1.455.182 2.188.19 1.763 0 3.856-.782 3.856-4.555Zm-3.856 3.23a14.463 14.463 0 0 1-2.188-.154v-7.37a16.823 16.823 0 0 1 2.188-.177c1.703 0 2.366.982 2.366 3.3v1.183c0 2.295-.698 3.23-2.366 3.23M98.677 35.782c2.602 0 4.045-1.62 4.045-4.554v-1.183c0-2.945-1.443-4.566-4.045-4.566-2.603 0-4.058 1.562-4.058 4.507v1.183c0 2.933 1.431 4.554 4.034 4.554l.023.06Zm-.024-9.084c1.786 0 2.614 1.017 2.614 3.229v1.183c0 2.2-.828 3.23-2.614 3.23s-2.603-1.03-2.603-3.23v-1.183c0-2.212.829-3.23 2.603-3.23ZM108.814 26.154v-.13c0-.225-.107-.592-.805-.592-.777-.004-1.54.2-2.212.591a.637.637 0 0 0-.626-.496h-.142a.651.651 0 0 0-.651.674v8.836a.662.662 0 0 0 .662.65h.119a.652.652 0 0 0 .65-.65v-7.606a4.106 4.106 0 0 1 2.2-.674c.698 0 .805-.379.805-.604ZM115.734 35.132v-.107c0-.13 0-.568-.698-.568h-.864c-.686 0-.922-.07-.922-.91v-6.672h1.833a.607.607 0 0 0 .601-.36.611.611 0 0 0 .05-.243v-.178a.607.607 0 0 0-.198-.432.588.588 0 0 0-.453-.147h-1.833V24a.63.63 0 0 0-.163-.454.63.63 0 0 0-.441-.197h-.201a.624.624 0 0 0-.586.403.632.632 0 0 0-.041.248v1.514h-1.466a.594.594 0 0 0-.663.58v.177a.62.62 0 0 0 .663.603h1.466v6.672c0 1.987 1.254 2.235 2.366 2.235.327.02.655.02.982 0a.578.578 0 0 0 .58-.603M117.378 35.486c.887.157 1.785.24 2.685.249 2.212 0 3.43-.982 3.43-2.78 0-1.407-1.017-2.07-2.448-2.85l-1.183-.663c-1.065-.591-1.573-.97-1.573-1.561 0-.876.426-1.183 1.715-1.183.755.014 1.51.07 2.259.165h.391c.165 0 .556-.059.556-.615v-.142c0-.52-.438-.58-.663-.615h-.106a18.49 18.49 0 0 0-2.508-.154c-1.964 0-3.076.911-3.076 2.508s1.018 2.082 2.366 2.803l1.183.616c1.491.804 1.739 1.123 1.739 1.656 0 1.052-.544 1.455-1.964 1.455a16.975 16.975 0 0 1-2.602-.284.592.592 0 0 0-.769.567v.19c0 .461.402.544.651.603M137.203 34.99v-.213a.503.503 0 0 0-.16-.398.51.51 0 0 0-.408-.134h-.13c-.603.07-1.963.165-3.087.165-2.165 0-3.312-1.55-3.312-4.46v-2.365c0-2.922 1.183-4.46 3.312-4.46 1.183 0 2.484.095 3.099.154.615.06.686-.236.686-.52v-.213a.659.659 0 0 0-.627-.627h-.083a24.53 24.53 0 0 0-3.075-.178c-1.774 0-4.732.757-4.732 5.844v2.366c0 5.074 2.969 5.831 4.732 5.831a25.373 25.373 0 0 0 3.075-.165h.083a.66.66 0 0 0 .627-.615M146.394 29.986c0-2.945-1.431-4.566-4.033-4.566-2.603 0-3.975 1.62-3.975 4.566v1.183c0 2.933 1.431 4.554 4.034 4.554 2.602 0 4.033-1.62 4.033-4.554l-.059-1.183Zm-4.033 4.471c-1.775 0-2.603-1.029-2.603-3.229v-1.183c0-2.2.828-3.23 2.603-3.23 1.774 0 2.602 1.03 2.602 3.23v1.183c0 2.2-.828 3.23-2.602 3.23ZM154.745 35.676h.201a.64.64 0 0 0 .639-.663v-8.848a.661.661 0 0 0-.662-.65h-.107a.663.663 0 0 0-.662.65v7.654a6.646 6.646 0 0 1-2.531.615c-1.42 0-2.118-.77-2.118-2.366v-5.914a.652.652 0 0 0-.639-.651h-.13a.664.664 0 0 0-.662.65v5.915a3.319 3.319 0 0 0 .891 2.7 3.313 3.313 0 0 0 2.658 1.014 7.099 7.099 0 0 0 2.614-.568.637.637 0 0 0 .627.474M158.199 25.515h-.142a.63.63 0 0 0-.464.2.637.637 0 0 0-.174.474v8.836a.661.661 0 0 0 .662.65h.107a.663.663 0 0 0 .662-.65v-7.653a6.372 6.372 0 0 1 2.531-.615c1.42 0 2.118.78 2.118 2.366v5.914a.652.652 0 0 0 .638.65h.131a.647.647 0 0 0 .611-.398.64.64 0 0 0 .051-.252v-5.914c0-2.366-1.277-3.715-3.549-3.715a7.098 7.098 0 0 0-2.602.568.642.642 0 0 0-.627-.473M170.442 26.757c.701.007 1.4.058 2.094.154a.58.58 0 0 0 .745-.568v-.119c0-.366-.201-.58-.627-.638a20.116 20.116 0 0 0-2.212-.166c-2.472 0-3.891 1.668-3.891 4.566v1.183c0 2.898 1.455 4.613 3.891 4.613.533 0 1.349-.059 2.224-.153.414-.06.615-.273.615-.64v-.13a.554.554 0 0 0-.179-.402.572.572 0 0 0-.412-.153h-.13c-.698.095-1.402.146-2.106.153-1.68 0-2.46-1.04-2.46-3.288v-1.183c0-2.212.78-3.23 2.46-3.23M175.541 35.782h.118a.663.663 0 0 0 .662-.65v-8.967a.661.661 0 0 0-.662-.65h-.118a.652.652 0 0 0-.651.65v8.967a.65.65 0 0 0 .651.65ZM175.541 24.391h.118a.663.663 0 0 0 .662-.65v-1.266a.676.676 0 0 0-.662-.663h-.118a.661.661 0 0 0-.651.663v1.313a.65.65 0 0 0 .651.65M179.373 21.86h-.177a.64.64 0 0 0-.592.615v12.657a.632.632 0 0 0 .382.6c.077.033.161.05.245.05h.178a.64.64 0 0 0 .627-.65V22.475a.644.644 0 0 0-.627-.65M80.957 52.899a.473.473 0 0 0-.284-.107h-.45a.473.473 0 0 0-.284.107.391.391 0 0 0-.141.319v.568a.391.391 0 0 0 .141.295c.079.07.18.107.284.107h.45a.45.45 0 0 0 .388-.238.378.378 0 0 0 .038-.164v-.556a.39.39 0 0 0-.142-.32M79.112 52.899a.425.425 0 0 0-.284-.107h-.426a.533.533 0 0 0-.308.107.44.44 0 0 0-.13.319v.568c.003.112.05.218.13.295.086.072.196.11.308.107h.426a.473.473 0 0 0 .284-.107.354.354 0 0 0 .153-.295v-.556a.366.366 0 0 0-.153-.32M90.94 42.395a.438.438 0 0 0-.295.118.403.403 0 0 0-.142.32v.614a.356.356 0 0 0 .13.296.414.414 0 0 0 .307.118h.474a.424.424 0 0 0 .319-.118.39.39 0 0 0 .13-.296v-.615a.462.462 0 0 0-.13-.32.473.473 0 0 0-.308-.117h-.485ZM93.78 45.53c-.293-.261-.64-.451-1.018-.557a5.094 5.094 0 0 0-1.337-.165h-.508c-.231.02-.46.055-.686.106-.25.05-.496.122-.734.213a2.668 2.668 0 0 0-.414.201v-.106a.426.426 0 0 0-.106-.284.402.402 0 0 0-.272-.107h-.52a.402.402 0 0 0-.391.414v3.797h-1.585a.84.84 0 0 1-.379 0V46.133a.379.379 0 0 0-.106-.284.45.45 0 0 0-.213-.095c-.237-.06-.478-.1-.722-.118h-.769a3.158 3.158 0 0 0-2.01.58 2.294 2.294 0 0 0-.758 1.892v2.874h-1.088a3.441 3.441 0 0 1-1.3-.2 1.621 1.621 0 0 1-.687-.545 1.822 1.822 0 0 1-.296-.816 7.207 7.207 0 0 1-.07-1.041 3.699 3.699 0 0 1 0-.473v-.568a.414.414 0 0 0-.095-.32.355.355 0 0 0-.26-.094h-.486a.39.39 0 0 0-.402.355c-.007.13-.007.26 0 .39v1.053c-.003.486.052.97.166 1.443.101.438.308.844.603 1.183.319.35.728.603 1.183.733.556.187 1.14.275 1.727.26h1.076c.322-.017.642-.056.959-.118a.414.414 0 0 0 .39-.402v-3.75c-.01-.22.023-.441.095-.65a.911.911 0 0 1 .248-.367.899.899 0 0 1 .414-.19c.197-.049.4-.073.603-.07h.58v2.188a1.313 1.313 0 0 0 .355 1.053c.34.25.764.36 1.183.308H93.956a.603.603 0 0 0 .403-.202.662.662 0 0 0 .154-.283c.038-.128.066-.259.082-.39.013-.15.013-.3 0-.45v-1.112a4.351 4.351 0 0 0-.2-1.396 2.295 2.295 0 0 0-.64-.982h.024Zm-.569 3.548h-4.128v-2.366c.138-.1.29-.18.45-.237a5.45 5.45 0 0 1 .627-.177c.213 0 .414-.07.603-.095h.438c.325-.002.65.03.97.095.23.049.446.154.626.308.175.152.306.348.38.567.092.315.136.642.13.97V48.83c.009.09.009.181 0 .272l-.096-.024ZM100.321 51.065h-.414a.45.45 0 0 0-.296.107.378.378 0 0 0-.154.319v.615a.403.403 0 0 0 .142.308.52.52 0 0 0 .308.118h.414a.428.428 0 0 0 .307-.13.42.42 0 0 0 .13-.296v-.615a.418.418 0 0 0-.437-.426ZM98.534 51.065h-.366a.426.426 0 0 0-.426.426v.615a.414.414 0 0 0 .118.296.425.425 0 0 0 .308.13h.414a.426.426 0 0 0 .307-.13.39.39 0 0 0 .142-.296v-.615a.425.425 0 0 0-.142-.32.462.462 0 0 0-.307-.106M99.871 50.308c.105-.004.209-.024.308-.06a.522.522 0 0 0 .26-.2.789.789 0 0 0 .106-.272 5.79 5.79 0 0 0 0-.745V45.824a.378.378 0 0 0-.114-.287.38.38 0 0 0-.288-.114h-.544a.377.377 0 0 0-.284.13.438.438 0 0 0-.083.272v2.993a.377.377 0 0 1 0 .2 2.244 2.244 0 0 1-.295 0h-1.302a.54.54 0 0 1-.165 0 .237.237 0 0 1-.083-.118 1.015 1.015 0 0 1 0-.283V41.91a.485.485 0 0 0-.094-.284.39.39 0 0 0-.296-.13h-.556a.4.4 0 0 0-.284.13.402.402 0 0 0-.106.284v6.86a2.28 2.28 0 0 0 .106.757c.066.201.184.381.343.52.156.133.343.223.544.261.221.05.448.075.674.071H99.895M106.815 41.507h-.556a.343.343 0 0 0-.272.119.359.359 0 0 0-.119.284v6.908a.617.617 0 0 1 0 .2 1.104 1.104 0 0 1-.295 0h-1.715v-3.181a.43.43 0 0 0-.107-.284.415.415 0 0 0-.284-.118h-.568a.41.41 0 0 0-.283.118.42.42 0 0 0-.107.284v5.31c.022.126.022.254 0 .38a.26.26 0 0 1-.106.153.78.78 0 0 1-.237.083h-.532a.356.356 0 0 0-.391.355v.485a.38.38 0 0 0 .355.378h.367c.315.016.631-.02.934-.106a1.29 1.29 0 0 0 .698-.603c.1-.171.164-.36.19-.556a5.63 5.63 0 0 0 0-.663v-.674h2.637c.109-.013.216-.036.32-.07a.488.488 0 0 0 .26-.214.768.768 0 0 0 .095-.248V41.91a.43.43 0 0 0-.107-.284.39.39 0 0 0-.284-.119M109.713 41.496h-.544a.402.402 0 0 0-.402.402v8.067a.404.404 0 0 0 .402.414h.544a.354.354 0 0 0 .296-.142.426.426 0 0 0 .094-.272v-8.067a.47.47 0 0 0-.094-.272.398.398 0 0 0-.296-.13ZM116.834 52.899a.452.452 0 0 0-.296-.107h-.426a.53.53 0 0 0-.295.107.399.399 0 0 0-.142.319v.568a.42.42 0 0 0 .13.295.46.46 0 0 0 .307.107h.426a.45.45 0 0 0 .284-.107.356.356 0 0 0 .154-.295v-.556a.396.396 0 0 0-.142-.32M118.667 52.899a.449.449 0 0 0-.284-.107h-.437a.424.424 0 0 0-.284.107.4.4 0 0 0-.154.319v.568a.394.394 0 0 0 .142.296.475.475 0 0 0 .296.106h.437a.425.425 0 0 0 .284-.107.377.377 0 0 0 .142-.295v-.556a.382.382 0 0 0-.142-.32M126.332 51.065h-.473a.46.46 0 0 0-.307.107.471.471 0 0 0-.142.319v.615c.007.113.058.22.142.296a.424.424 0 0 0 .307.13h.473a.42.42 0 0 0 .308-.13.436.436 0 0 0 .142-.296v-.615a.426.426 0 0 0-.142-.308.439.439 0 0 0-.308-.118ZM132.755 43.861a.417.417 0 0 0 .308-.118.355.355 0 0 0 .13-.296v-.615a.387.387 0 0 0-.13-.32.438.438 0 0 0-.296-.117h-.485a.472.472 0 0 0-.307.118.453.453 0 0 0-.142.32v.614a.377.377 0 0 0 .033.162.38.38 0 0 0 .097.134.421.421 0 0 0 .319.118h.473Z" fill="#fff"/><path d="M134.908 45.53a2.693 2.693 0 0 0-1.029-.557 5.094 5.094 0 0 0-1.336-.165h-.509c-.226.02-.451.051-.674.094-.249.052-.494.12-.734.201l-.414.19v-3.395a.388.388 0 0 0-.118-.272.367.367 0 0 0-.284-.119h-.556a.366.366 0 0 0-.284.119.414.414 0 0 0-.106.272v7.097h-1.81l-.201-.07v-3.088a.374.374 0 0 0-.118-.284.392.392 0 0 0-.272-.118h-.521a.4.4 0 0 0-.402.402V48.9a.357.357 0 0 1-.13.082H123.635c-.011 0 0 0 0-.189v-2.661a.38.38 0 0 0-.106-.284.579.579 0 0 0-.213-.095 4.37 4.37 0 0 0-.722-.118h-.78a3.122 3.122 0 0 0-1.999.58 2.25 2.25 0 0 0-.757 1.892v2.756h-1.1a3.445 3.445 0 0 1-1.302-.201 1.626 1.626 0 0 1-.686-.544 1.971 1.971 0 0 1-.295-.804 7.273 7.273 0 0 1-.071-1.053v-.474c0-.189 0-.378.071-.567a.475.475 0 0 0-.107-.32.331.331 0 0 0-.26-.094h-.58a.39.39 0 0 0-.414.355c0 .118 0 .248-.059.39v.769c-.005.094-.005.19 0 .284-.009.486.046.971.166 1.443.089.44.293.848.591 1.183.307.335.694.587 1.124.733a5.161 5.161 0 0 0 1.727.26h1.076c.326-.018.65-.057.97-.118a.416.416 0 0 0 .379-.402v-3.632a2.05 2.05 0 0 1 .094-.65.916.916 0 0 1 .249-.367.96.96 0 0 1 .414-.19c.201-.05.408-.074.615-.07h.568v2.188a1.276 1.276 0 0 0 .366 1.053c.326.233.725.342 1.124.308h1.065c.25-.002.5-.03.745-.083.225-.036.439-.12.627-.249.191.13.41.215.639.249.26.055.526.083.792.083H135.074a.593.593 0 0 0 .414-.19.823.823 0 0 0 .166-.295c.033-.129.057-.259.071-.39v-1.562a4.061 4.061 0 0 0-.213-1.396 2.368 2.368 0 0 0-.627-.97l.023-.012Zm-.496 2.542v.675c.008.086.008.173 0 .26h-4.141v-2.401c.138-.088.285-.16.438-.213.21-.07.423-.13.639-.178a3.964 3.964 0 0 1 1.088-.083c.314-.008.628.024.935.095.228.04.441.142.615.296.173.16.3.364.366.591.104.313.152.641.142.97M143.543 51.065h-.425a.418.418 0 0 0-.438.426v.615a.425.425 0 0 0 .13.296.435.435 0 0 0 .308.13h.485a.424.424 0 0 0 .295-.13.394.394 0 0 0 .142-.296v-.615a.385.385 0 0 0-.034-.17.384.384 0 0 0-.108-.138.412.412 0 0 0-.295-.118" fill="#fff"/><path d="M144.821 45.825a.395.395 0 0 0-.114-.288.399.399 0 0 0-.288-.114h-.544a.377.377 0 0 0-.284.13.415.415 0 0 0-.083.272v2.981a.69.69 0 0 1 0 .213h-1.822V45.34a.362.362 0 0 0-.083-.248.45.45 0 0 0-.224-.119 3.09 3.09 0 0 0-.746-.142h-.899a2.969 2.969 0 0 0-2.129.745 2.718 2.718 0 0 0-.745 2.011v.284a2.572 2.572 0 0 0 .662 1.917 2.604 2.604 0 0 0 1.881.638h.947v.26a1.34 1.34 0 0 1-.119.592.696.696 0 0 1-.319.32 1.471 1.471 0 0 1-.556.177c-.26.02-.521.02-.781 0h-.958a.33.33 0 0 0-.342.204.332.332 0 0 0-.025.139v.497a.322.322 0 0 0 .083.236.416.416 0 0 0 .249.119h1.194c.398.01.795-.03 1.183-.119.33-.059.641-.192.911-.39.266-.191.478-.448.615-.745.16-.374.244-.776.249-1.183v-.249h2.46c.101-.004.201-.024.296-.059a.5.5 0 0 0 .272-.2.95.95 0 0 0 .106-.273 5.79 5.79 0 0 0 0-.745V46.464l-.047-.64Zm-6.66 1.656a1.306 1.306 0 0 1 .844-1.356c.18-.066.373-.092.564-.075h.757v2.98h-.935a1.303 1.303 0 0 1-.97-.295 1.534 1.534 0 0 1-.283-1.041l.023-.213ZM147.376 42.099h-.556a.366.366 0 0 0-.284.118.424.424 0 0 0-.106.284v7.464a.424.424 0 0 0 .106.284.374.374 0 0 0 .284.13h.556a.342.342 0 0 0 .284-.142.37.37 0 0 0 .106-.272v-7.464a.414.414 0 0 0-.106-.272.328.328 0 0 0-.284-.13ZM147.849 40.798h-.721a.382.382 0 0 1 0-.083.555.555 0 0 1 0-.308c0-.165 0-.33.414-.33h.354a.297.297 0 0 0 .332-.308v-.154a.37.37 0 0 0-.272-.32h-.474a1.456 1.456 0 0 0-.899.26 1.045 1.045 0 0 0-.343.84 1.5 1.5 0 0 0 0 .39 1.143 1.143 0 0 0 0 .084c-.26 0-.272.224-.272.284v.2c0 .154.095.32.379.32h1.502c.074.02.151.02.225 0a.278.278 0 0 0 .12-.112.28.28 0 0 0 .034-.16v-.19c0-.153-.095-.319-.367-.319M170.442 51.065h-.485a.447.447 0 0 0-.295.107.42.42 0 0 0-.142.32v.614a.42.42 0 0 0 .13.296.424.424 0 0 0 .307.13h.485a.427.427 0 0 0 .296-.13.394.394 0 0 0 .142-.296v-.615a.372.372 0 0 0-.142-.308.412.412 0 0 0-.296-.118Z" fill="#fff"/><path d="M177.421 44.808a2.522 2.522 0 0 0-1.869.686 2.614 2.614 0 0 0-.65 1.916v1.088c.013.095.013.19 0 .284a.162.162 0 0 1 0 .107.633.633 0 0 1-.178.094h-.792l-.462-1.183-.118-.295a6.241 6.241 0 0 0-.721-1.325 3.398 3.398 0 0 0-.864-.84 2.877 2.877 0 0 0-1.005-.414 5.434 5.434 0 0 0-1.668-.095 3.561 3.561 0 0 0-.544.083.423.423 0 0 0-.272.13.413.413 0 0 0-.095.26v.462a.34.34 0 0 0 .118.26.448.448 0 0 0 .26.083H169.425c.552-.03 1.1.106 1.573.39.418.297.743.708.935 1.183l.556 1.325H166.953l-.201-.071v-7.038a.388.388 0 0 0-.107-.272.35.35 0 0 0-.284-.119h-.769a.353.353 0 0 0-.283.119.35.35 0 0 0-.091.122.348.348 0 0 0-.028.15V48.9a.467.467 0 0 1-.13.083H163.416l-.213-.07V45.54a.387.387 0 0 0-.106-.272.358.358 0 0 0-.284-.13h-.544a.437.437 0 0 0-.284.118.484.484 0 0 0-.095.284v3.3a.11.11 0 0 1 .01.048.11.11 0 0 1-.01.047.495.495 0 0 1-.13.083h-.58a4.094 4.094 0 0 1-.556 0 .183.183 0 0 1-.177-.107V45.98a.387.387 0 0 0-.236-.363.363.363 0 0 0-.154-.028h-.533a.372.372 0 0 0-.272.107.44.44 0 0 0-.118.284V48.936a.166.166 0 0 1-.118.07H157.703v-2.601a.427.427 0 0 0-.226-.38.354.354 0 0 0-.165-.035h-.532a.403.403 0 0 0-.39.415v4.601h-.746a3.405 3.405 0 0 1-1.289-.19 1.559 1.559 0 0 1-.686-.52 1.683 1.683 0 0 1-.296-.792 7.434 7.434 0 0 1-.071-1.065v-.225a2.47 2.47 0 0 1 0-.272v-.579a.401.401 0 0 0-.071-.331.358.358 0 0 0-.272-.107h-.485a.389.389 0 0 0-.402.355 3.633 3.633 0 0 0-.059.402V48.83a5.54 5.54 0 0 0 .177 1.466c.106.421.317.808.615 1.124.329.33.736.57 1.183.698a5.505 5.505 0 0 0 1.716.236h.816c.272 0 .556-.082.84-.142a.682.682 0 0 0-.048-.165.332.332 0 0 0 .099-.126.33.33 0 0 0 .031-.158v-1.419H158.235c.275 0 .549-.032.816-.095.197-.04.386-.117.556-.225.164.116.349.2.544.249.252.06.51.087.769.082h.177c.255.003.509-.024.758-.082.196-.044.382-.129.544-.249.196.121.412.205.638.249.241.053.487.08.734.082h.639c.246 0 .492-.028.733-.082a1.72 1.72 0 0 0 .639-.249l.236.13c.127.05.257.09.391.119.133.01.268.01.402 0h7.109c.312 0 .623-.043.923-.13.208-.052.397-.163.544-.32.197.193.436.339.698.426.379.135.78.2 1.183.19a2.446 2.446 0 0 0 1.904-.663c.426-.54.637-1.219.591-1.905v-.58a2.709 2.709 0 0 0-.626-1.916 2.368 2.368 0 0 0-1.846-.674l.13.107Zm-1.313 2.578c-.027-.38.073-.759.284-1.076a1.111 1.111 0 0 1 1.029-.178 1.017 1.017 0 0 1 .887.343c.199.323.294.699.273 1.077v.426c.03.377-.061.754-.261 1.076a1.178 1.178 0 0 1-.922.296 1.832 1.832 0 0 1-.781-.154.756.756 0 0 1-.355-.544 2.922 2.922 0 0 1 0-.591l-.154-.675Z" fill="#fff"/><path d="M69.282 34.576a31.7 31.7 0 0 0-2.52-10.504c-.52-1.266-1.183-2.544-1.81-3.821l-.378-.734-.355-.674-.355-.71C61.061 12.634 57.95 6.4 59.996.604v-.32L59.712 0h-.095v.118V0H59.416c-7.605 6.967-9.96 16.56-6.198 24.663.662 1.396 1.597 3.028 2.59 4.732.758 1.313 1.61 2.791 2.366 4.293-4.46 9.239-14.206 12.918-21.35 15.591l-.32-.213-.591-.39a32.413 32.413 0 0 0-11.7-5.477 28.748 28.748 0 0 0-6.718-.97 9.233 9.233 0 0 0-1.396.095l-.426.07c-.142 0-.58.142-.58.474v.118h1.929c2.57.124 5.117.56 7.582 1.301a34.885 34.885 0 0 1 8.387 3.549A42.729 42.729 0 0 0 17.613 44.7a21.787 21.787 0 0 0-6.328.77c-.805.26-1.183.508-1.065.815v.13h.13a20.226 20.226 0 0 1 6.01-.71c5.24.1 10.43 1.035 15.377 2.769a42.37 42.37 0 0 0-10.788-1.444c-1.183 0-2.437 0-3.679.166-.45 0-.994.083-1.55.154a31.097 31.097 0 0 0-9.758 2.803c-.78.426-1.041.686-.923.958v.119h.107l.851-.367c.627-.248 1.396-.556 2.248-.816a44.417 44.417 0 0 1 12.527-1.987h.378c3.443.034 6.872.43 10.232 1.182a49.34 49.34 0 0 0-4.093-.236h-3.123a55.093 55.093 0 0 0-7.76.899 45.056 45.056 0 0 0-9.805 2.945 34.841 34.841 0 0 0-3.857 1.964c-.619.357-1.215.752-1.786 1.183l-.13.106c-.236.192-.44.42-.603.675a1.1 1.1 0 0 0-.225.437v.32h.118l.26-.19.438-.295c.686-.462 1.396-.911 2.13-1.337a48.498 48.498 0 0 1 23.125-5.619c5.105.01 10.182.763 15.07 2.236h.165a24.84 24.84 0 0 0 5.974 1.076h1.183a19.66 19.66 0 0 0 9.38-2.365c.585-.298 1.15-.634 1.692-1.006a21.918 21.918 0 0 0 8.647-9.463.401.401 0 0 0 .082-.178c.286-.688.523-1.395.71-2.117.245-1.274.321-2.574.225-3.868l.083.166ZM68.24 36.87a21.21 21.21 0 0 0-1.384-4.672c.21-1.344.344-2.698.402-4.057a25.266 25.266 0 0 1 .982 8.73Zm-9.097-3.312a25.158 25.158 0 0 0 1.444-3.939c.674 1.183 1.242 2.366 1.774 3.549a21.007 21.007 0 0 1-1.668 3.679 45.796 45.796 0 0 0-1.55-3.265v-.024Zm3.088 8.008a22.893 22.893 0 0 0-1.112-3.702 21.843 21.843 0 0 0 1.75-3.549c.32.758.616 1.503.911 2.295l.107.284c.154.39.295.793.437 1.183a20.107 20.107 0 0 1-2.093 3.454v.035Zm3.998-10.74c-.355-.78-.757-1.609-1.183-2.532-.142-.295-.296-.58-.426-.851a28.545 28.545 0 0 0 0-5.915 45.95 45.95 0 0 1 1.325 2.851c.618 2.094.716 4.307.284 6.447Zm-1.81-1.845c.52 1.04 1.112 2.235 1.62 3.454-.059.378-.118.78-.189 1.182a18.3 18.3 0 0 1-.934 3.42l-.13-.32-.095-.272a66.48 66.48 0 0 0-1.313-3.194 26.935 26.935 0 0 0 1.041-4.282v.012Zm-.698-1.373c-.173 1.509-.47 3-.887 4.46-.544-1.183-1.183-2.26-1.857-3.549.341-1.475.602-2.967.78-4.471.556.935 1.183 2.082 1.964 3.549v.011Zm.142-1.585a80.766 80.766 0 0 0-1.845-3.253l-.107-.177c.196-2.113.196-4.24 0-6.352.367.745.746 1.49 1.183 2.247l.119.237c.65 2.375.87 4.846.65 7.298Zm-2.72-4.731a24.067 24.067 0 0 1-1.586-3.348 25.468 25.468 0 0 1-1.182-12.929c.179 2.771.877 5.484 2.058 7.997.704 2.7.944 5.5.71 8.28Zm-2.366-3.028a29.106 29.106 0 0 0 2.283 4.59c-.147 1.549-.38 3.089-.698 4.613a50.543 50.543 0 0 0-.887-1.515l-.58-1.005a22.073 22.073 0 0 1-3.312-8.387v-.213c-.622-4.009.08-8.112 1.999-11.687a26.483 26.483 0 0 0 1.183 13.592l.012.012ZM56.826 4.187a19.434 19.434 0 0 0-2.106 12.267v.2a23.113 23.113 0 0 0 3.36 8.695l.568.958c.425.734.91 1.562 1.372 2.366l-.06.26c-.316 1.3-.744 2.57-1.277 3.797a189.3 189.3 0 0 0-2.117-3.761c-.97-1.715-1.905-3.336-2.544-4.732-3.04-6.494-1.987-14.1 2.981-20.393l-.213.39.036-.047ZM39.355 49.243c7.274-2.756 15.223-6.66 19.387-14.537.592 1.183 1.077 2.212 1.479 3.205a22.713 22.713 0 0 1-5.252 5.678 28.993 28.993 0 0 1-15.614 5.654ZM55.5 44.287a24.085 24.085 0 0 0 5.11-5.37 18.72 18.72 0 0 1 .97 3.667 22.258 22.258 0 0 1-4.909 4.282A21.29 21.29 0 0 1 48.226 50a28.237 28.237 0 0 1-3.04.236c-1.064 0-2.827 0-3.335-.07l-2.13-.178h.497a28.886 28.886 0 0 0 15.283-5.702ZM41.448 51.03h.343c.497 0 2.307.142 3.443.094a27.523 27.523 0 0 0 3.122-.26 21.907 21.907 0 0 0 8.777-3.253 22.82 22.82 0 0 0 4.543-3.82 7.514 7.514 0 0 1-.284 2.424 5.667 5.667 0 0 1-1.372 2.366 10.21 10.21 0 0 1-3.253 2.094h-.119c-1.185.589-2.43 1.049-3.714 1.372-1.579.33-3.19.489-4.802.473a23.29 23.29 0 0 1-6.045-.923s-.946-.248-2.448-.686c.544 0 1.182.13 1.81.178v-.06Zm20.784-4.46a9.216 9.216 0 0 0 .26-3.62 20.012 20.012 0 0 0 2.283-3.418c.164.62.279 1.254.343 1.893.08.854.003 1.716-.225 2.543a4.611 4.611 0 0 1-.402.958c-.24.349-.517.67-.828.958l-.083.083a22.7 22.7 0 0 1-.958.91c-.32.285-.509.462-.757.663.145-.314.267-.638.367-.97Zm3.11-8.21a18.425 18.425 0 0 0 1.326-4.246c.357 1.028.626 2.085.804 3.159a7.263 7.263 0 0 1 0 3.11l-.06.19c-.366.927-.86 1.799-1.466 2.59a11.013 11.013 0 0 0-.591-4.861" fill="#BC955C"/></g><defs><clipPath id="a"><path fill="#fff" d="M0 0h180v57.547H0z"/></clipPath></defs></svg>